<svg width="538" height="690" viewBox="0 0 538 690" fill="none" xmlns="http://www.w3.org/2000/svg">
<path d="M386.385 51.623C425.181 68.5825 471.365 82.4585 478.755 117.148C486.145 152.609 454.739 208.884 448.581 262.075C443.039 314.496 462.744 362.291 452.276 390.043C441.191 417.795 399.933 424.733 366.68 460.964C332.811 497.967 307.563 564.263 270 591.244C231.82 618.996 181.325 606.662 157.309 562.722C133.293 519.552 135.756 444.776 127.75 390.043C119.745 335.31 101.271 300.62 93.8815 260.534C86.4919 220.447 89.5709 174.965 103.118 131.795C116.05 88.6256 139.451 47.7685 170.856 24.6419C202.878 1.51527 242.289 -3.88096 278.621 3.82792C314.953 12.3077 346.974 33.8926 386.385 51.623Z" fill="url(#paint0_linear)"/>
<path d="M189.038 101.536C189.038 101.536 196.024 102.225 196.625 114.325C197.226 126.425 197.276 161.534 184.155 163.697C171.034 165.86 180.474 106.018 180.474 106.018L189.038 101.536Z" fill="#1C2226"/>
<path d="M143.464 112.382C143.464 112.382 138.155 130.908 148.747 134.294C159.365 137.679 157.386 110.815 157.386 110.815L143.464 112.382Z" fill="#1C2226"/>
<path d="M203.812 228.743L236.64 286.672L234.812 281.249L249.962 366.263L266.839 362.313L256.397 276.202C256.172 274.322 255.596 272.629 254.795 271.187L254.569 270.779L221.741 212.85L203.812 228.743Z" fill="#FCC9A7"/>
<path d="M262.532 392.344C271.171 389.115 276.054 377.705 273.475 366.921C270.896 356.106 261.781 349.994 253.167 353.223C244.528 356.451 239.645 367.862 242.224 378.645C244.803 389.429 253.893 395.573 262.532 392.344Z" fill="#FCC9A7"/>
<path d="M132.746 226.768L111.988 306.202L123.131 296.735L55.5212 294.447L54.4443 315.919L121.754 324.226C126.762 324.853 131.269 320.966 132.771 315.23L132.897 314.76L153.655 235.326L132.746 226.768Z" fill="#FCC9A7"/>
<path d="M136.427 633.059L126.261 668.137L111.387 651.397L120.877 623.279L136.427 633.059Z" fill="#FCC9A7"/>
<path d="M132.145 660.018C132.145 658.294 130.969 657.165 129.792 657.792C127.488 659.015 123.657 660.08 119.124 657.541C114.392 654.877 113.515 650.519 113.515 647.636C113.515 646.131 112.664 645.002 111.562 645.19L76.9309 651.429C74.8275 651.805 72.8492 653.341 71.447 655.692C70.1198 657.886 70.7457 661.115 72.5987 661.804L124.308 681.491C126.336 682.274 128.54 680.425 129.141 677.478L132.07 662.996C132.12 662.745 132.145 662.494 132.145 662.275V660.018Z" fill="#1F252A"/>
<path d="M271.647 609.235L282.915 636.852L269.794 650.896L255.621 617.762L271.647 609.235Z" fill="#FCC9A7"/>
<path d="M285.269 630.771C284.217 629.674 282.765 630.05 282.389 631.586C281.638 634.595 279.835 638.921 275.328 641.617C270.645 644.407 267.415 642.401 265.662 640.551C264.736 639.579 263.484 639.673 262.908 640.833L244.278 677.917C243.151 680.174 242.8 683.027 243.326 685.879C243.802 688.575 246.156 690.048 247.808 688.732L293.282 652.118C295.06 650.676 295.385 647.385 293.983 644.908L287.047 632.746C286.922 632.558 286.797 632.37 286.646 632.213L285.269 630.771Z" fill="#1F252A"/>
<path d="M147.921 350.182L192.393 504.63L255.346 635.222L283.416 617.856L227.45 487.671L196.75 357.454L147.921 350.182Z" fill="#092330"/>
<path d="M216.633 352.47C216.633 352.47 225.046 372.376 211.975 404.193L171.384 501.15L140.459 648.106L109.734 634.689L139.132 486.072L170.908 370.119L147.896 350.213L216.633 352.47Z" fill="#0C2C40"/>
<path d="M178.345 180.876L212.977 189.778C217.058 190.813 220.664 193.759 223.093 197.991L245.129 236.423L215.681 260.529L226.298 365.761C226.298 365.761 214.304 411.716 141.135 375.072C141.135 375.072 147.445 287.864 143.213 231.062L145.367 193.665L178.345 180.876Z" fill="#DF945B"/>
<path d="M145.342 193.634L139.582 196.267C134.825 198.43 131.119 203.226 129.541 209.276L117.547 255.074L152.804 263.225L145.342 193.634Z" fill="#DF945B"/>
<path d="M33.0345 299.055C33.0345 310.34 40.3464 319.493 49.361 319.493C58.3757 319.493 65.6625 310.34 65.6625 299.055C65.6625 287.77 58.3506 278.648 49.361 278.648C40.3464 278.648 33.0345 287.77 33.0345 299.055Z" fill="#FCC9A7"/>
<path d="M168.554 194.135L172.486 196.863C180.123 196.079 187.31 194.041 186.684 184.481L184.856 156.456L157.186 159.309L159.014 187.333C159.64 196.894 160.917 194.919 168.554 194.135Z" fill="#FCC9A7"/>
<path d="M185.232 159.842C185.232 159.842 181.425 180.594 167.503 179.873C155.333 179.214 156.485 156.456 156.485 156.456L185.232 159.842Z" fill="#F4BE9A"/>
<path d="M169.882 172.506L172.236 172.192C184.005 170.594 192.518 157.365 191.266 142.601L189.814 125.799C188.537 111.065 177.97 100.407 166.176 101.975L163.822 102.288C152.053 103.887 143.539 117.115 144.791 131.88L146.243 148.682C147.52 163.415 158.088 174.073 169.882 172.506Z" fill="#FCC9A7"/>
<path d="M213.653 253.194L204.738 240.028" stroke="#CE804A" stroke-width="0.7693" stroke-miterlimit="10" stroke-linecap="round" stroke-linejoin="round"/>
<path d="M144.541 261.313L143.188 234.135" stroke="#CE804A" stroke-width="0.7693" stroke-miterlimit="10" stroke-linecap="round" stroke-linejoin="round"/>
<path d="M168.555 194.136L186.133 180.844C193.645 176.926 198.428 186.017 198.428 186.017L177.494 211.721L168.555 194.136Z" fill="#EDA472"/>
<path d="M168.555 194.135L160.041 210.624L151.527 191.22C151.527 191.22 154.882 184.606 159.465 186.142L168.555 194.135Z" fill="#EDA472"/>
<path d="M122.68 299.901H16.2823C14.5044 299.901 13.0772 298.114 13.0772 295.888C13.0772 293.663 14.5044 291.876 16.2823 291.876H122.68C124.458 291.876 125.885 293.663 125.885 295.888C125.885 298.083 124.458 299.901 122.68 299.901Z" fill="#D1D1D1"/>
<path d="M13.0772 294.854L0.356514 217.489C0.0309857 215.577 1.20797 213.759 2.78553 213.759H67.5155C68.6924 213.759 69.719 214.793 69.9444 216.267L82.4897 294.885H13.0772V294.854Z" fill="#D1D1D1"/>
<path d="M7.54315 219.652L19.4124 289.839H78.1077L66.2384 219.652H7.54315Z" fill="#EFEFEF"/>
<path d="M188.412 138.588H181.225L179.823 128.714C179.823 128.714 172.311 123.667 173.763 113.918C173.763 113.918 142.137 128.118 137.204 112.319C130.693 91.4733 154.306 86.3011 173.763 86.8967C193.22 87.4609 191.817 118.557 191.817 118.557L188.412 138.588Z" fill="#1C2226"/>
<path d="M184.205 136.613C184.656 141.88 188.437 145.673 192.644 145.109C196.85 144.544 199.88 139.811 199.43 134.544C198.979 129.278 195.198 125.485 190.991 126.049C186.784 126.614 183.754 131.347 184.205 136.613Z" fill="#FCC9A7"/>
<path d="M312.318 435.102H389.268V587.951H312.318V435.102Z" fill="#B2B2B2"/>
<path d="M388.967 435.102H465.917V587.951H388.967V435.102Z" fill="#D1D1D1"/>
<path d="M429.283 249.746L432.563 331.907L447.988 392.156H420.218L405.795 340.245L401.287 281.25L429.283 249.746Z" fill="#F7EBE7"/>
<path d="M430.059 536.917L424.475 569.487L443.23 572.277L448.564 540.209L430.059 536.917Z" fill="#FCC9A7"/>
<path d="M423.348 566.541C423.824 564.785 425.326 564.158 426.353 565.287C428.356 567.512 431.962 570.24 437.296 569.581C442.83 568.892 444.908 564.817 445.709 561.87C446.135 560.334 447.312 559.55 448.364 560.209L481.943 581.337C483.972 582.622 485.574 585.004 486.376 587.982C487.127 590.772 485.624 593.781 483.521 593.719L425.502 591.712C423.223 591.65 421.47 588.829 421.67 585.568L422.622 569.581C422.647 569.331 422.672 569.048 422.747 568.798L423.348 566.541Z" fill="#1F252A"/>
<path d="M430.385 379.429H473.93C473.93 379.429 500.448 377.58 502.026 404.82C503.603 432.061 463.138 509.99 456.802 551.619L420.393 547.858L446.611 434.663L381.405 435.133C376.572 435.164 371.764 434.287 367.207 432.312C354.511 426.795 335.13 418.895 345.697 375.135L430.385 379.429Z" fill="#092330"/>
<path d="M396.78 537.043L387.916 575.976L406.671 578.766L415.285 540.334L396.78 537.043Z" fill="#FCC9A7"/>
<path d="M386.789 573.03C387.264 571.274 388.767 570.647 389.793 571.776C391.797 574.001 395.403 576.729 400.736 576.07C406.27 575.381 408.349 571.305 409.15 568.359C409.576 566.823 410.753 566.039 411.804 566.697L445.384 587.825C447.412 589.111 449.015 591.493 449.816 594.471C450.567 597.261 449.065 600.27 446.961 600.208L387.941 598.201C385.662 598.139 383.909 595.317 384.109 592.057L386.088 576.07C386.113 575.819 386.138 575.537 386.213 575.287L386.789 573.03Z" fill="#1F252A"/>
<path d="M378.35 217.458C377.374 218.649 333.677 232.599 333.677 232.599L343.018 263.664L390.795 259.15L378.35 217.458Z" fill="#F7EBE7"/>
<path d="M396.379 224.95C396.379 224.95 424.851 237.959 429.283 249.746C427.755 266.391 423.073 282.41 415.36 296.108C405.895 312.91 394.201 341.781 396.354 379.429H314.046C314.046 379.429 318.478 273.507 342.842 232.85L396.379 224.95Z" fill="#F7EBE7"/>
<path d="M387.039 241.752C378.951 239.683 373.742 229.809 375.395 219.684L380.228 190.061L409.5 197.553L404.668 227.176C403.015 237.301 395.127 243.821 387.039 241.752Z" fill="#FCC9A7"/>
<path d="M378.225 200.405C378.225 200.405 381.305 224.417 396.229 225.859C409.3 227.113 408.048 203.446 408.048 203.446L378.225 200.405Z" fill="#F4BE9A"/>
<path d="M395.052 212.693L392.473 211.941C379.527 208.179 371.464 192.004 374.469 175.829L377.874 157.366C380.879 141.159 393.8 131.065 406.721 134.827L409.3 135.579C422.246 139.341 430.309 155.516 427.305 171.691L423.899 190.155C420.894 206.361 407.973 216.455 395.052 212.693Z" fill="#FCC9A7"/>
<path d="M382.582 183.509C383.183 184.794 383.759 186.738 383.959 189.684C384.185 193.415 385.687 196.957 388.191 199.026C395.378 204.982 400.862 189.904 411.479 192.568C411.479 192.568 415.636 193.352 416.462 199.151C417.288 204.919 423.073 194.825 424.35 187.929C425.627 181.033 426.278 222.066 400.135 218.587C400.135 218.587 386.939 218.054 378.05 201.22C377.073 199.371 376.497 197.208 376.447 194.982C376.372 191.691 376.748 186.706 379.252 183.133C380.128 181.816 381.881 182.004 382.582 183.509Z" fill="#1C2226"/>
<path d="M382.557 174.199C382.557 174.199 393.85 169.528 391.947 148.87C391.947 148.87 419.993 182.098 440.777 157.71C440.777 157.71 431.486 154.607 427.655 146.645C420.669 132.131 400.586 112.132 384.51 135.266C384.51 135.266 364.953 131.473 370.562 169.183L382.557 174.199Z" fill="#1C2226"/>
<path d="M382.557 174.199C381.48 179.967 376.873 183.572 372.265 182.255C367.633 180.907 364.778 175.139 365.83 169.372C366.907 163.604 371.514 159.999 376.122 161.315C380.754 162.663 383.634 168.431 382.557 174.199Z" fill="#FCC9A7"/>
<path d="M396.83 240.592L384.736 240.874L393.199 262.818L402.339 241.784L396.83 240.592Z" fill="#0C2C40"/>
<path d="M374.369 218.43L389.944 241.188L379.802 255.764L361.147 223.665C361.147 223.665 365.93 214.041 374.369 218.43Z" fill="#FFF7F3"/>
<path d="M396.83 240.592L405.795 253.257L412.105 233.508C412.105 233.508 410.452 224.637 405.294 226.329L396.83 240.592Z" fill="#FFF7F3"/>
<path d="M393.525 255.733C393.525 255.733 405.219 293.914 402.314 348.082L390.795 361.248L377.348 345.041L391.847 253.257L393.525 255.733Z" fill="#0C2C40"/>
<path d="M371.664 346.389L396.705 356.702L398.358 375.103L365.154 362.69L371.664 346.389Z" fill="#FCC9A7"/>
<path d="M392.974 368.865C392.974 379.617 399.935 388.363 408.549 388.363C417.138 388.363 424.124 379.649 424.124 368.865C424.124 358.113 417.163 349.367 408.549 349.367C399.96 349.367 392.974 358.082 392.974 368.865Z" fill="#FCC9A7"/>
<path d="M396.379 379.429H439.9C439.9 379.429 466.418 377.58 467.996 404.82C469.573 432.061 426.128 515.006 419.792 556.604L383.383 552.842L412.581 434.632L347.375 435.102C342.542 435.133 337.734 434.255 333.177 432.281C320.481 426.763 301.1 418.864 311.667 375.103L396.379 379.429Z" fill="#0C2C40"/>
<path d="M527.667 283.099H452.42C449.941 283.099 447.813 285.262 447.287 288.303L433.114 371.498C432.413 375.573 434.917 379.429 438.247 379.429H514.746C517.251 379.429 519.404 377.204 519.88 374.131L532.801 290.936C533.452 286.861 530.973 283.099 527.667 283.099Z" fill="#B2B2B2"/>
<path d="M532 283.099H456.777C454.298 283.099 452.17 285.262 451.644 288.303L437.471 371.498C436.77 375.573 439.249 379.429 442.604 379.429H519.079C521.583 379.429 523.736 377.204 524.212 374.131L537.133 290.936C537.784 286.861 535.305 283.099 532 283.099Z" fill="#D1D1D1"/>
<path d="M435.167 372.313H383.759C382.181 372.313 380.929 373.912 380.929 375.856C380.929 377.83 382.206 379.398 383.759 379.398H436.169L435.167 372.313Z" fill="#B2B2B2"/>
<path d="M485.424 329.085C485.424 334.759 489.08 339.336 493.612 339.336C498.145 339.336 501.801 334.728 501.801 329.085C501.801 323.412 498.12 318.835 493.612 318.835C489.08 318.835 485.424 323.412 485.424 329.085Z" fill="white"/>
<path d="M351.632 262.191L324.137 317.769L389.944 347.173L380.929 371.561C380.929 371.561 324.663 363.661 297.469 337.424C294.965 335.01 293.713 331.092 294.138 327.173C295.416 314.634 300.874 284.196 324.137 240.937C328.87 232.129 338.285 229.464 345.622 234.793C353.26 240.31 355.939 252.536 351.632 262.191Z" fill="#F7EBE7"/>
<path d="M372.441 339.336L324.137 317.769L348.301 268.899" stroke="#EADDD8" stroke-width="0.7599" stroke-miterlimit="10" stroke-linecap="round" stroke-linejoin="round"/>
<path d="M405.144 320.935L417.038 281.626" stroke="#EADDD8" stroke-width="0.7599" stroke-miterlimit="10" stroke-linecap="round" stroke-linejoin="round"/>
<path d="M371.664 369.9C371.664 369.9 334.704 364.1 316.074 350.746" stroke="#EADDD8" stroke-width="0.7599" stroke-miterlimit="10" stroke-linecap="round" stroke-linejoin="round"/>
<defs>
<linearGradient id="paint0_linear" x1="89.9694" y1="606.027" x2="565.356" y2="479.338" gradientUnits="userSpaceOnUse">
<stop stop-color="#6CACE4"/>
<stop offset="0.0666667" stop-color="#6CACE4"/>
<stop offset="0.133333" stop-color="#6DADE4"/>
<stop offset="0.2" stop-color="#6FAEE5"/>
<stop offset="0.266667" stop-color="#72B0E5"/>
<stop offset="0.333333" stop-color="#75B3E6"/>
<stop offset="0.4" stop-color="#79B6E7"/>
<stop offset="0.466667" stop-color="#7DB9E8"/>
<stop offset="0.533333" stop-color="#82BDEA"/>
<stop offset="0.6" stop-color="#86C0EB"/>
<stop offset="0.666667" stop-color="#8AC3EC"/>
<stop offset="0.733333" stop-color="#8DC6ED"/>
<stop offset="0.8" stop-color="#90C8ED"/>
<stop offset="0.866667" stop-color="#92C9EE"/>
<stop offset="0.933333" stop-color="#93CAEE"/>
<stop offset="1" stop-color="#93CAEE"/>
</linearGradient>
</defs>
</svg>
